<svg xmlns="http://www.w3.org/2000/svg" width="200" height="200" aria-labelledby="comp-l150fu3o-svgtitle_comp-l150fu3o" data-bbox="20 20 160 160" data-type="color" viewBox="20 20 160 160"><defs><style></style></defs><path fill="#0765D2" d="m96.426 29.411-.375.016 1.803-8.225 1.621-.155-2.343 9.676-1.398.133-3.157-7.98.372-.035-1.613 8.434-1.398.132-4.086-9.062 1.621-.155 3.266 7.743-.371.054 1.391-8.205 1.808-.171 2.859 7.8zM104.834 31.121a4.544 4.544 0 0 1-2.199-.743c-.67-.437-1.193-1.038-1.571-1.8-.377-.764-.531-1.645-.459-2.648.071-1 .347-1.852.828-2.554a4.613 4.613 0 0 1 1.811-1.578c.725-.35 1.486-.496 2.283-.439s1.526.311 2.189.76 1.18 1.056 1.55 1.819c.372.762.522 1.645.451 2.646-.071 1.001-.344 1.854-.82 2.555-.475.701-1.072 1.222-1.789 1.559a4.473 4.473 0 0 1-2.274.423zm.101-1.407a2.936 2.936 0 0 0 1.502-.289c.479-.229.884-.593 1.213-1.092.329-.498.52-1.116.572-1.855.053-.738-.049-1.378-.305-1.917a3.163 3.163 0 0 0-1.045-1.274 2.848 2.848 0 0 0-1.446-.519 2.946 2.946 0 0 0-1.513.298 3.147 3.147 0 0 0-1.232 1.1c-.336.498-.53 1.123-.583 1.875-.052.738.049 1.378.305 1.918.255.54.61.959 1.065 1.255a3.08 3.08 0 0 0 1.467.5zM112.251 22.308l1.472.274-1.705 9.253-1.473-.274 1.706-9.253zm4.161 2.211c-.625-.117-1.18-.058-1.661.179a3.461 3.461 0 0 0-1.205.963 4.468 4.468 0 0 0-.709 1.217l.179-1.078c.02-.111.079-.29.176-.541.097-.251.242-.526.438-.828.196-.302.434-.582.718-.843.282-.259.62-.455 1.011-.585.393-.131.84-.151 1.344-.056l-.291 1.572zM119.888 20l1.435.43-3.739 12.627-1.435-.429L119.888 20zm6.359 5.832-5.804 3.113.314-.929 3.125 6.926-1.83-.548-2.941-6.359 5.09-2.817 2.046.614zM130.633 38.287c-.655-.34-1.162-.838-1.52-1.496s-.533-1.398-.527-2.22c.007-.821.224-1.651.653-2.488.428-.838.977-1.498 1.647-1.984.67-.487 1.387-.771 2.153-.855a3.832 3.832 0 0 1 2.214.425c.776.402 1.266.906 1.468 1.512.203.606.211 1.276.023 2.012a11.048 11.048 0 0 1-.897 2.308 8.85 8.85 0 0 1-.84 1.314 6.186 6.186 0 0 1-1.186 1.184 3.241 3.241 0 0 1-1.472.637c-.534.081-1.107-.034-1.716-.349zm.983-1.101c.566.292 1.106.396 1.621.31a2.736 2.736 0 0 0 1.394-.687 4.752 4.752 0 0 0 1.049-1.393c.315-.613.498-1.2.552-1.757a2.655 2.655 0 0 0-.276-1.519c-.238-.455-.633-.825-1.188-1.112-.833-.43-1.626-.471-2.381-.12-.755.35-1.36.971-1.817 1.864-.303.592-.459 1.177-.468 1.758-.01.58.115 1.105.375 1.57.26.466.64.827 1.139 1.086zm6.214-5.972 1.332.689-4.282 8.368-1.216-.628.431-1.048c.114-.279.218-.508.309-.687l3.426-6.694zM141.496 33.43l1.247.834-5.184 7.835-1.247-.834 5.184-7.835zm2.964 3.676c-.53-.353-1.062-.518-1.597-.49a3.432 3.432 0 0 0-1.484.409 4.427 4.427 0 0 0-1.129.839l.586-.92c.062-.093.186-.236.373-.428s.429-.389.726-.589.627-.364.989-.491c.361-.128.748-.173 1.159-.139s.831.193 1.257.479l-.88 1.33zM143.854 47.044a4.597 4.597 0 0 1-1.35-1.898c-.287-.75-.361-1.544-.222-2.386.139-.84.529-1.646 1.17-2.414.642-.77 1.361-1.298 2.16-1.583a4.582 4.582 0 0 1 2.386-.211 4.435 4.435 0 0 1 2.106.989 4.434 4.434 0 0 1 1.329 1.906c.275.755.341 1.551.196 2.388-.143.837-.536 1.641-1.177 2.409-.641.771-1.359 1.299-2.153 1.587-.794.289-1.581.359-2.36.21a4.492 4.492 0 0 1-2.085-.997zm.901-1.082c.403.339.863.556 1.386.652.522.097 1.062.041 1.62-.169.557-.211 1.072-.599 1.545-1.166.473-.568.763-1.146.871-1.735.108-.589.073-1.138-.105-1.648a2.859 2.859 0 0 0-.868-1.271 2.942 2.942 0 0 0-1.399-.652c-.531-.095-1.078-.04-1.64.166-.562.206-1.084.597-1.564 1.173-.473.568-.764 1.145-.871 1.735-.108.589-.064 1.137.131 1.646.194.506.493.93.894 1.269zM155.848 52.59l-.377.368c-.12.091-.314.221-.584.389a7.035 7.035 0 0 1-.959.489 4.36 4.36 0 0 1-1.19.317 2.93 2.93 0 0 1-1.266-.12c-.422-.133-.82-.409-1.196-.829a4.173 4.173 0 0 1-.627-.938 3.218 3.218 0 0 1-.318-1.143c-.037-.406.04-.831.232-1.274.191-.443.527-.883 1.009-1.32l4.618-4.181 1.002 1.119-4.34 3.929c-.417.378-.684.742-.799 1.09a1.588 1.588 0 0 0-.013 1.012 2.6 2.6 0 0 0 .548.923c.426.476.901.762 1.426.861a3.203 3.203 0 0 0 1.542-.078 4.339 4.339 0 0 0 1.292-.614zm-2.302 3.984-1.002-1.119 6.955-6.297 1.003 1.118-6.956 6.298zM162.306 52.601l.837 1.248-7.76 5.262-.837-1.248 7.76-5.262zm2.793 3.828c.279.416.468.832.567 1.25.099.417.106.82.022 1.211-.085.39-.253.761-.506 1.114-.252.353-.59.673-1.015.96l-5.183 3.515-.838-1.249 4.873-3.304c.6-.407.956-.853 1.068-1.336.111-.486-.022-1.009-.398-1.57a2.712 2.712 0 0 0-1.121-.965 3.156 3.156 0 0 0-1.494-.292c-.535.021-1.068.175-1.6.46l.89-.626a4.786 4.786 0 0 1 1.394-.48c.46-.076.899-.079 1.316-.007a3.047 3.047 0 0 1 2.025 1.319zM161.174 69.168a3.616 3.616 0 0 1-.324-2.13c.108-.742.413-1.436.913-2.082.5-.647 1.173-1.174 2.016-1.582.843-.41 1.673-.615 2.487-.621.814-.004 1.546.178 2.194.548.647.368 1.142.909 1.483 1.621.304.633.436 1.206.398 1.719a2.63 2.63 0 0 1-.509 1.385c-.303.41-.698.786-1.185 1.127-.488.341-1.035.658-1.642.952a8.73 8.73 0 0 1-1.457.538 6.167 6.167 0 0 1-1.656.229 3.247 3.247 0 0 1-1.556-.386c-.477-.256-.864-.696-1.162-1.318zm1.444-.28c.276.576.645.986 1.108 1.229.462.243.97.341 1.523.297a4.737 4.737 0 0 0 1.673-.477c.618-.299 1.116-.655 1.493-1.067.377-.413.607-.873.69-1.379.083-.507-.011-1.044-.282-1.608-.406-.847-1.015-1.361-1.827-1.538-.812-.177-1.668-.049-2.567.387-.596.287-1.072.661-1.428 1.12-.356.456-.57.95-.641 1.48a2.708 2.708 0 0 0 .258 1.556zm11.911-2.634.65 1.356-11.805 5.717-.593-1.238c.236-.142.517-.31.841-.501.323-.192.587-.337.789-.434l10.118-4.9zM176.845 76.43l.417 1.447-11.329 3.296-.416-1.446 11.328-3.297zm-2.894-1.255 1.53 5.316-1.349.392-1.529-5.315 1.348-.393zM166.832 84.332l12.917-2.21.251 1.484-12.917 2.211-.251-1.485zm1.08 6.383 5.794-.992c.48-.081.864-.223 1.153-.427.289-.202.488-.464.598-.789.109-.324.126-.71.051-1.154a2.746 2.746 0 0 0-.626-1.344 3.174 3.174 0 0 0-1.242-.886 3.704 3.704 0 0 0-1.645-.243l1.067-.202a4.8 4.8 0 0 1 1.467.141c.451.12.851.3 1.203.539a3.067 3.067 0 0 1 1.304 2.039c.083.495.085.953.005 1.374a2.71 2.71 0 0 1-.476 1.112 2.99 2.99 0 0 1-.917.806 3.958 3.958 0 0 1-1.319.455l-6.163 1.054-.254-1.483zM171.524 100.423l.042 1.41a3.807 3.807 0 0 1-1.657-.618 3.647 3.647 0 0 1-1.182-1.32c-.298-.549-.458-1.189-.48-1.915-.026-.878.158-1.675.555-2.389a4.528 4.528 0 0 1 1.671-1.717c.717-.43 1.543-.66 2.479-.689.935-.028 1.777.144 2.525.517a4.47 4.47 0 0 1 1.789 1.574c.445.675.681 1.447.707 2.312.028.916-.152 1.697-.538 2.343-.386.646-.965 1.134-1.735 1.466-.77.331-1.724.482-2.861.456l-.216-7.15c-.609.081-1.141.266-1.594.558a2.952 2.952 0 0 0-1.043 1.122c-.242.46-.354.979-.337 1.556.019.639.201 1.177.546 1.612a2.49 2.49 0 0 0 1.329.872zm5.048-2.735c-.024-.778-.267-1.423-.733-1.937-.465-.513-1.087-.845-1.865-.996l.167 5.512c.822-.076 1.437-.362 1.847-.857a2.5 2.5 0 0 0 .584-1.722zM163.588 112.016l.406.063c.654.104 1.155.008 1.504-.286.349-.295.576-.783.683-1.465l.289-1.859c.063-.409.152-.76.268-1.053.115-.293.256-.527.421-.705a1.36 1.36 0 0 1 .57-.369c.213-.067.442-.082.689-.043.469.074.801.271.997.595.197.323.292.699.288 1.131a4 4 0 0 1-.188 1.208l-.342.862c.067-.676.08-1.204.038-1.586-.042-.381-.223-.597-.544-.648a.568.568 0 0 0-.486.142c-.139.125-.231.329-.276.614l-.301 1.934c-.1.645-.281 1.22-.542 1.725a2.64 2.64 0 0 1-1.106 1.141c-.475.256-1.083.326-1.823.209l-.776-.123.231-1.487zm5.585-1.921a3.936 3.936 0 0 1 .762-1.795 3.773 3.773 0 0 1 1.583-1.219c.648-.272 1.386-.343 2.212-.214.826.13 1.51.422 2.053.876a3.857 3.857 0 0 1 1.361 3.604c-.033.211-.08.409-.14.597a3.162 3.162 0 0 1-.224.527l-.588 3.775-1.59-.251a4.56 4.56 0 0 1 .543-1.543c.279-.495.552-.913.82-1.253l.086-.062c-.302.398-.635.71-.999.938a3.385 3.385 0 0 1-1.18.462 3.934 3.934 0 0 1-1.336.008c-.827-.13-1.508-.418-2.045-.864a3.676 3.676 0 0 1-1.141-1.617 3.974 3.974 0 0 1-.177-1.969zm1.387.217a2.315 2.315 0 0 0 .852 2.191c.347.283.799.469 1.354.556.555.087 1.043.052 1.465-.104a2.274 2.274 0 0 0 1.022-.725c.26-.328.421-.697.485-1.106a2.333 2.333 0 0 0-.126-1.2 2.372 2.372 0 0 0-.743-1.013c-.348-.284-.805-.469-1.372-.558-.555-.088-1.04-.05-1.457.113a2.274 2.274 0 0 0-1.005.738c-.253.33-.412.699-.475 1.108zM179.211 119.263l-.371 1.458-12.694-3.266.371-1.459 12.694 3.267zM164.159 123.147a4.574 4.574 0 0 1 1.314-1.922c.602-.528 1.32-.869 2.153-1.025.834-.155 1.718-.062 2.657.282.938.344 1.676.845 2.215 1.501.539.66.876 1.386 1.013 2.184a4.51 4.51 0 0 1-.206 2.329 4.424 4.424 0 0 1-1.328 1.907 4.516 4.516 0 0 1-2.165 1c-.831.151-1.716.054-2.654-.29-.938-.343-1.678-.841-2.219-1.492-.541-.653-.875-1.373-1.002-2.16a4.582 4.582 0 0 1 .222-2.314zm1.32.482a2.977 2.977 0 0 0-.136 1.533c.088.525.325 1.017.711 1.471.386.456.925.809 1.618 1.063.692.252 1.331.33 1.918.231s1.089-.32 1.504-.662c.416-.341.713-.759.893-1.255a2.984 2.984 0 0 0 .13-1.545c-.092-.535-.33-1.032-.714-1.493-.384-.461-.928-.821-1.632-1.079-.692-.252-1.332-.331-1.918-.231-.587.099-1.085.328-1.493.685a3.097 3.097 0 0 0-.881 1.282zM159.799 132.806c.325-.608.731-1.029 1.218-1.263a3.189 3.189 0 0 1 1.57-.316 6.096 6.096 0 0 1 1.646.301 8.661 8.661 0 0 1 1.431.603c.594.32 1.126.662 1.599 1.024.472.362.85.755 1.133 1.178.284.424.433.892.449 1.408.015.514-.142 1.081-.473 1.699-.372.697-.89 1.214-1.553 1.554-.663.34-1.402.489-2.216.449-.814-.042-1.633-.283-2.458-.729-.825-.446-1.472-1.003-1.944-1.671-.471-.667-.748-1.373-.825-2.113a3.598 3.598 0 0 1 .423-2.124zm1.429.346c-.271.509-.381 1.025-.33 1.552.051.526.244 1.026.58 1.499.335.473.794.867 1.377 1.181.879.475 1.728.642 2.548.502.819-.143 1.45-.627 1.893-1.457.295-.551.412-1.084.352-1.593a2.66 2.66 0 0 0-.629-1.409c-.358-.429-.84-.806-1.445-1.133a4.584 4.584 0 0 0-1.655-.542 2.826 2.826 0 0 0-1.535.228c-.468.219-.854.608-1.156 1.172zm11.783 3.162-9.893-5.346a11.887 11.887 0 0 1-.769-.468c-.316-.206-.589-.387-.818-.538l.647-1.212 11.542 6.238-.709 1.326zM155.897 144.566l-.831 1.139a3.863 3.863 0 0 1-.927-1.513 3.693 3.693 0 0 1-.123-1.772c.102-.616.368-1.219.796-1.804.517-.709 1.151-1.223 1.901-1.539a4.48 4.48 0 0 1 2.368-.318c.829.105 1.621.436 2.375.994.754.557 1.312 1.214 1.673 1.971s.509 1.539.444 2.349c-.064.808-.351 1.561-.86 2.259-.539.739-1.158 1.243-1.859 1.512-.699.269-1.454.296-2.264.081-.81-.218-1.653-.689-2.532-1.415l4.209-5.765c-.53-.313-1.062-.497-1.597-.549a2.92 2.92 0 0 0-1.51.24c-.472.212-.877.551-1.218 1.016-.376.516-.563 1.052-.558 1.608.006.552.177 1.056.513 1.506zm5.652.974c.458-.627.661-1.287.609-1.979-.052-.693-.338-1.339-.859-1.941l-3.246 4.445c.694.45 1.354.606 1.98.468a2.47 2.47 0 0 0 1.516-.993zM105.785 169.786l.373-.029-1.524 8.282-1.615.209 2.016-9.749 1.392-.18 3.425 7.868-.371.048 1.328-8.485 1.392-.18 4.39 8.918-1.615.21-3.525-7.627.368-.067-1.113 8.248-1.801.233-3.12-7.699zM97.313 168.367c.799.03 1.539.252 2.223.667.684.414 1.228.996 1.631 1.747.404.749.586 1.624.549 2.628-.036 1.003-.283 1.863-.74 2.58a4.615 4.615 0 0 1-1.755 1.64 4.435 4.435 0 0 1-2.267.519 4.387 4.387 0 0 1-2.213-.684 4.554 4.554 0 0 1-1.611-1.765c-.397-.749-.578-1.625-.54-2.628.037-1.003.28-1.862.731-2.58.451-.72 1.03-1.259 1.736-1.622a4.466 4.466 0 0 1 2.256-.502zm-.052 1.411a2.953 2.953 0 0 0-1.492.34c-.47.247-.862.626-1.175 1.135-.312.509-.482 1.135-.509 1.874-.027.74.096 1.375.37 1.907.273.53.637.943 1.088 1.236.451.292.939.448 1.462.468a2.939 2.939 0 0 0 1.502-.348c.477-.253.875-.634 1.193-1.143.319-.509.492-1.14.519-1.892.027-.74-.096-1.376-.37-1.907-.274-.531-.643-.937-1.107-1.218a3.014 3.014 0 0 0-1.481-.452zM85.964 175.363c.629.095 1.18.016 1.654-.236a3.445 3.445 0 0 0 1.172-1.004c.308-.416.531-.83.668-1.239l-.142 1.082a3.452 3.452 0 0 1-.157.548 4.756 4.756 0 0 1-.41.843 4.35 4.35 0 0 1-.688.866c-.273.27-.604.477-.991.621-.388.145-.835.18-1.341.103l.235-1.584zm4.234 2.067-1.481-.223 1.389-9.306 1.481.223-1.389 9.306zM76.095 174.39l5.694-3.31-.281.937-3.359-6.813 1.848.485 3.156 6.253-4.993 2.99-2.065-.542zm6.553 5.61-1.449-.381 3.307-12.748 1.45.38L82.648 180zM64.316 169.396l-1.354-.643 3.999-8.509 1.235.587-.395 1.062a9.048 9.048 0 0 1-.286.696l-3.199 6.807zm6.956-7.311a3.544 3.544 0 0 1 1.569 1.442c.379.645.58 1.379.601 2.201.02.822-.169 1.658-.569 2.508-.4.85-.926 1.53-1.58 2.039-.653.509-1.36.817-2.123.928a3.85 3.85 0 0 1-2.227-.35c-.789-.376-1.295-.863-1.518-1.462-.223-.598-.253-1.268-.09-2.009a11.05 11.05 0 0 1 .819-2.338c.203-.432.468-.878.795-1.341a6.196 6.196 0 0 1 1.145-1.225 3.226 3.226 0 0 1 1.45-.684c.532-.101 1.108-.005 1.728.291zm-.946 1.132c-.575-.274-1.118-.359-1.63-.254a2.745 2.745 0 0 0-1.37.733 4.745 4.745 0 0 0-1.002 1.429c-.293.623-.457 1.215-.493 1.775a2.66 2.66 0 0 0 .326 1.507c.253.447.661.803 1.225 1.072.846.402 1.641.415 2.384.04.742-.375 1.327-1.018 1.753-1.925.283-.601.419-1.193.409-1.772a3.06 3.06 0 0 0-.428-1.557 2.674 2.674 0 0 0-1.174-1.048zM57.513 163.744c.541.337 1.078.483 1.612.437a3.44 3.44 0 0 0 1.47-.459 4.505 4.505 0 0 0 1.099-.877l-.554.939a3.363 3.363 0 0 1-.359.44 4.567 4.567 0 0 1-.706.613c-.291.21-.614.385-.971.524a2.764 2.764 0 0 1-1.155.178c-.413-.019-.837-.164-1.272-.435l.836-1.36zm3.084 3.575-1.274-.791 4.916-8.007 1.275.791-4.917 8.007zM57.765 153.778a4.583 4.583 0 0 1 1.411 1.852c.313.74.413 1.531.303 2.377-.111.845-.474 1.662-1.089 2.453-.615.79-1.317 1.342-2.106 1.653a4.576 4.576 0 0 1-2.379.292 4.445 4.445 0 0 1-2.138-.918 4.425 4.425 0 0 1-1.393-1.859 4.589 4.589 0 0 1-.276-2.38c.116-.841.481-1.656 1.096-2.447.615-.791 1.315-1.345 2.099-1.66a4.391 4.391 0 0 1 2.351-.288 4.5 4.5 0 0 1 2.121.925zm-.865 1.113a2.952 2.952 0 0 0-1.408-.607c-.524-.077-1.062-.003-1.612.226-.549.227-1.052.634-1.506 1.217-.453.583-.724 1.17-.813 1.763-.088.592-.034 1.14.16 1.642.195.504.498.919.911 1.243.413.325.887.526 1.42.604a3.127 3.127 0 0 0 1.633-.221c.555-.224 1.063-.634 1.525-1.227.453-.583.724-1.171.812-1.762a2.995 2.995 0 0 0-.186-1.641 3.064 3.064 0 0 0-.936-1.237zM47.765 144.587l1.039 1.084-6.738 6.531-1.04-1.084 6.739-6.531zm-2.166 4.06.364-.379a8.41 8.41 0 0 1 .571-.409c.263-.176.578-.35.943-.52a4.36 4.36 0 0 1 1.178-.358c.42-.068.843-.043 1.269.076.426.119.834.381 1.223.787.252.263.471.569.659.918.188.349.306.726.356 1.131.05.405-.013.833-.19 1.281-.175.45-.497.901-.964 1.354l-4.474 4.335-1.04-1.083 4.205-4.076c.405-.392.658-.763.762-1.116a1.578 1.578 0 0 0-.021-1.013 2.604 2.604 0 0 0-.579-.903c-.442-.46-.926-.731-1.455-.812a3.224 3.224 0 0 0-1.537.131 4.352 4.352 0 0 0-1.27.656zM36.237 145.148a3.82 3.82 0 0 1-.609-1.229 2.698 2.698 0 0 1-.064-1.21c.072-.393.228-.769.467-1.131.241-.361.568-.693.982-.995l5.06-3.692.88 1.219-4.758 3.471c-.585.427-.926.883-1.021 1.372-.095.489.055 1.007.451 1.555a2.71 2.71 0 0 0 1.154.926c.469.202.969.281 1.503.241a3.693 3.693 0 0 0 1.583-.515l-.867.657a4.77 4.77 0 0 1-1.377.527 3.89 3.89 0 0 1-1.315.052 3.03 3.03 0 0 1-2.069-1.248zm2.922 3.728-.879-1.218 7.575-5.526.879 1.218-7.575 5.526zM26.466 135.637l-.696-1.333 11.604-6.12.635 1.218c-.231.15-.507.327-.823.529-.317.202-.575.356-.774.461l-9.946 5.245zm13.248-3.373c.348.667.481 1.372.396 2.118-.083.745-.364 1.449-.843 2.113-.478.664-1.131 1.214-1.96 1.649-.829.438-1.65.672-2.465.706-.814.033-1.551-.125-2.211-.471-.659-.345-1.172-.87-1.537-1.569-.325-.623-.476-1.191-.456-1.706.02-.514.175-.981.463-1.402.288-.42.669-.81 1.145-1.167a11.795 11.795 0 0 1 1.61-1.008c.42-.222.899-.417 1.437-.588a6.094 6.094 0 0 1 1.648-.284c.56-.02 1.083.091 1.567.332.486.24.887.666 1.206 1.277zm-1.434.33c-.296-.566-.678-.963-1.149-1.19a2.746 2.746 0 0 0-1.533-.244 4.72 4.72 0 0 0-1.656.534c-.607.321-1.093.693-1.456 1.118a2.66 2.66 0 0 0-.643 1.402c-.065.51.047 1.042.337 1.597.435.833 1.061 1.325 1.878 1.475.818.15 1.67-.01 2.553-.476.586-.309 1.049-.697 1.389-1.168.34-.469.537-.97.591-1.5a2.699 2.699 0 0 0-.311-1.548zM23.808 125.548l-.465-1.432 11.21-3.68.465 1.432-11.21 3.68zm2.934 1.155-1.708-5.26 1.335-.438 1.708 5.26-1.335.438zM33.566 117.241l-12.815 2.748-.312-1.472 12.815-2.748.312 1.472zm-1.343-6.333-5.748 1.232c-.476.103-.854.26-1.134.474-.28.214-.468.486-.564.814-.096.329-.098.715-.003 1.156.107.504.333.942.681 1.318a3.18 3.18 0 0 0 1.277.832 3.666 3.666 0 0 0 1.654.174l-1.058.247a4.805 4.805 0 0 1-1.472-.079 3.917 3.917 0 0 1-1.223-.488 3.04 3.04 0 0 1-.897-.848 3.09 3.09 0 0 1-.49-1.136c-.104-.49-.124-.948-.061-1.372s.206-.802.43-1.131c.224-.331.518-.613.884-.845a3.936 3.936 0 0 1 1.298-.51l6.115-1.311.311 1.473zM28.32 101.37l-.09-1.408a3.83 3.83 0 0 1 1.677.56c.502.313.91.741 1.225 1.279.317.54.497 1.172.545 1.898.056.876-.102 1.679-.474 2.408a4.54 4.54 0 0 1-1.612 1.773c-.702.454-1.52.712-2.455.772-.934.059-1.78-.083-2.541-.43a4.49 4.49 0 0 1-1.84-1.512c-.468-.66-.729-1.424-.785-2.287-.058-.915.095-1.701.458-2.359.365-.659.926-1.166 1.685-1.524.759-.358 1.707-.542 2.844-.552l.457 7.137c.606-.102 1.131-.306 1.574-.61a2.952 2.952 0 0 0 1.004-1.159c.226-.468.321-.989.284-1.565-.04-.638-.24-1.17-.598-1.592a2.48 2.48 0 0 0-1.358-.829zm-4.954 2.905c.05.776.316 1.412.798 1.911.482.496 1.115.808 1.898.933l-.352-5.502c-.82.103-1.425.409-1.817.918a2.497 2.497 0 0 0-.527 1.74zM30.34 91.647a3.96 3.96 0 0 1-.7 1.821 3.785 3.785 0 0 1-1.539 1.272c-.639.295-1.374.392-2.204.29-.829-.101-1.523-.37-2.08-.804a3.864 3.864 0 0 1-1.484-3.557c.025-.211.065-.411.12-.601.054-.19.122-.368.205-.534l.458-3.793 1.598.195a4.555 4.555 0 0 1-.49 1.56c-.262.506-.52.932-.777 1.281l-.083.066c.288-.407.61-.732.966-.973a3.374 3.374 0 0 1 1.163-.502c.42-.094.866-.112 1.336-.055.83.102 1.521.366 2.073.793.551.428.95.954 1.195 1.578.244.625.325 1.279.243 1.963zm-1.394-.17a2.338 2.338 0 0 0-.159-1.186 2.319 2.319 0 0 0-.769-.975c-.356-.27-.814-.44-1.372-.509-.557-.068-1.044-.017-1.46.154-.417.17-.749.423-.997.759-.248.337-.397.71-.446 1.121-.05.411.006.811.166 1.197.161.386.42.715.776.985.357.272.821.442 1.39.511.558.07 1.042.014 1.453-.163.411-.178.738-.435.979-.772.244-.337.389-.712.439-1.122zm6.91-1.943-.408-.05c-.657-.079-1.155.034-1.493.339-.339.307-.549.803-.632 1.487l-.226 1.869a5.026 5.026 0 0 1-.231 1.062 2.194 2.194 0 0 1-.398.72 1.342 1.342 0 0 1-.556.387c-.211.075-.44.099-.687.067-.47-.057-.81-.243-1.016-.56-.207-.315-.316-.689-.326-1.12a4.025 4.025 0 0 1 .146-1.214l.313-.873c-.044.677-.038 1.205.016 1.586.055.38.243.589.565.629a.568.568 0 0 0 .482-.161c.135-.128.219-.336.254-.623l.235-1.943a5.63 5.63 0 0 1 .483-1.742c.244-.514.6-.906 1.067-1.177.467-.272 1.071-.362 1.814-.272l.78.096-.182 1.493zM20 82.805l.321-1.47 12.797 2.832-.322 1.47L20 82.805zM34.908 78.42a4.603 4.603 0 0 1-1.248 1.968c-.584.547-1.29.912-2.118 1.097-.827.184-1.715.12-2.665-.192-.949-.311-1.704-.786-2.265-1.425a4.632 4.632 0 0 1-1.086-2.147 4.498 4.498 0 0 1 .127-2.334 4.437 4.437 0 0 1 1.263-1.952 4.546 4.546 0 0 1 2.129-1.073c.826-.178 1.713-.112 2.663.199.949.31 1.705.783 2.267 1.415.563.634.921 1.341 1.074 2.123a4.565 4.565 0 0 1-.141 2.321zm-1.335-.437a2.98 2.98 0 0 0 .085-1.537c-.106-.522-.36-1.005-.761-1.447-.402-.441-.952-.778-1.652-1.007-.7-.229-1.342-.283-1.926-.165-.583.119-1.077.356-1.481.712a2.871 2.871 0 0 0-.85 1.286 2.973 2.973 0 0 0-.079 1.548c.11.531.365 1.021.764 1.468s.955.787 1.668 1.022c.699.23 1.341.284 1.924.165.584-.119 1.073-.364 1.469-.735.398-.373.676-.81.839-1.31zM25.623 65.55l10.066 5.008c.202.099.463.247.785.443.322.194.6.364.836.509l-.606 1.231L24.96 66.9l.663-1.35zm13.323 3.058c-.304.619-.695 1.053-1.174 1.305-.48.252-1 .375-1.561.369a6.076 6.076 0 0 1-1.654-.246 8.638 8.638 0 0 1-1.451-.553 12.02 12.02 0 0 1-1.632-.969 5.006 5.006 0 0 1-1.173-1.14 2.632 2.632 0 0 1-.496-1.392c-.032-.512.106-1.084.416-1.714.349-.708.849-1.244 1.5-1.606.652-.361 1.385-.535 2.2-.523.815.014 1.641.229 2.481.648.838.417 1.505.951 1.999 1.602.494.652.792 1.347.896 2.084a3.596 3.596 0 0 1-.351 2.135zm-1.44-.297c.254-.517.347-1.038.278-1.563a3.084 3.084 0 0 0-.63-1.478c-.35-.461-.822-.841-1.415-1.135-.895-.445-1.749-.583-2.563-.414-.813.168-1.428.675-1.844 1.518-.276.563-.375 1.098-.299 1.605.078.509.304.969.676 1.386.373.417.867.778 1.482 1.083.56.279 1.117.44 1.672.486a2.829 2.829 0 0 0 1.527-.28c.461-.231.833-.635 1.116-1.208zM42.455 56.721l.792-1.165c.448.43.774.923.977 1.481.203.556.264 1.145.182 1.766-.082.62-.327 1.23-.735 1.831-.494.726-1.109 1.26-1.848 1.601a4.52 4.52 0 0 1-2.357.399c-.831-.077-1.634-.382-2.406-.912-.773-.532-1.352-1.171-1.738-1.913a4.539 4.539 0 0 1-.523-2.332c.037-.81.298-1.573.785-2.288.514-.756 1.116-1.281 1.807-1.575.69-.291 1.444-.342 2.26-.155.816.189 1.676.632 2.578 1.328l-4.015 5.903c.541.295 1.078.46 1.614.494a2.922 2.922 0 0 0 1.502-.29c.465-.227.858-.579 1.182-1.056.36-.527.527-1.07.505-1.625a2.499 2.499 0 0 0-.562-1.492zm-5.681-.782c-.437.641-.618 1.307-.543 1.998.076.69.383 1.327.923 1.912l3.096-4.553c-.708-.426-1.372-.56-1.994-.401a2.469 2.469 0 0 0-1.482 1.044zM99.952 136.496a36.28 36.28 0 0 1-13.962-2.797c-8.999-3.743-16.002-10.765-19.719-19.775-3.717-9.009-3.703-18.927.039-27.926s10.765-16 19.775-19.718c9.01-3.716 18.928-3.702 27.925.04 8.999 3.743 16.002 10.765 19.719 19.775 3.717 9.009 3.703 18.926-.039 27.925-5.827 14.011-19.433 22.476-33.738 22.476zM100 65.859c-4.409 0-8.818.866-13.017 2.599-8.428 3.477-14.997 10.027-18.498 18.446-3.501 8.417-3.514 17.695-.037 26.123 3.477 8.429 10.028 14.998 18.446 18.498 17.38 7.225 37.395-1.031 44.621-18.409 7.227-17.377-1.031-37.394-18.409-44.62A34.08 34.08 0 0 0 100 65.859z" data-color="1"/><path fill="#0765D2" d="M90.593 134.602c-1.594 0-3.137-.292-4.603-.902-5.052-2.102-8.251-7.65-9.008-15.623-.731-7.708.9-16.846 4.595-25.729S90.6 75.866 96.582 70.95c6.188-5.086 12.378-6.727 17.43-4.629 5.052 2.1 8.251 7.649 9.008 15.623.732 7.708-.9 16.846-4.594 25.729-6.744 16.209-18.192 26.929-27.833 26.929zm18.862-66.816c-3.462 0-7.382 1.697-11.379 4.983-5.689 4.676-10.776 11.95-14.325 20.484-3.549 8.533-5.12 17.27-4.425 24.601.671 7.065 3.359 11.921 7.568 13.671 8.959 3.732 22.129-7.38 29.355-24.757 3.549-8.533 5.12-17.271 4.424-24.602-.671-7.065-3.358-11.92-7.567-13.67a9.424 9.424 0 0 0-3.651-.71z" data-color="1"/><path fill="#0765D2" d="m112.477 66.966 2.175.905L87.52 133.07l-2.175-.905 27.132-65.198z" data-color="1"/><path fill="#0765D2" d="m67.85 85.371 65.205 27.118-.905 2.175-65.204-27.118.904-2.175zM114.057 132.455c-4.467-6.175-12.15-11.846-21.08-15.559-9.323-3.876-19.073-5.271-26.751-3.83l-.435-2.315c8.117-1.52 18.355-.078 28.089 3.97 9.32 3.876 17.37 9.837 22.084 16.353l-1.907 1.381zM126.393 90.466c-6.687 0-14.157-1.57-21.352-4.562-9.32-3.876-17.37-9.837-22.084-16.353l1.908-1.381c4.467 6.175 12.15 11.846 21.08 15.559 9.32 3.876 19.071 5.272 26.751 3.83l.435 2.315c-2.118.397-4.38.592-6.738.592z" data-color="1"/></svg>